<?xml version="1.0" encoding="utf-8"?>
<!-- Generator: Adobe Illustrator 27.4.1, SVG Export Plug-In . SVG Version: 6.00 Build 0)  -->
<svg version="1.1" xmlns="http://www.w3.org/2000/svg" xmlns:xlink="http://www.w3.org/1999/xlink" x="0px" y="0px"
	 viewBox="0 0 1472.4 2138.5" style="enable-background:new 0 0 1472.4 2138.5;" xml:space="preserve">
<style type="text/css">
	.st0{display:none;}
	.st1{display:inline;}
	.st2{display:inline;fill:none;stroke:#9ACA3C;stroke-width:2;stroke-linecap:round;stroke-linejoin:round;stroke-miterlimit:10;}
	.st3{display:inline;fill:none;stroke:#EC1C24;stroke-width:2;}
	.st4{fill:none;stroke:#000000;}
	.st5{fill:none;stroke:#000000;stroke-width:6;stroke-linecap:round;stroke-linejoin:round;}
	.st6{fill:none;stroke:#000000;stroke-width:7;stroke-linecap:round;stroke-linejoin:round;}
	.st7{fill:#BFBFBF;}
	.st8{fill:none;stroke:#999999;stroke-width:2;}
	.st9{fill:#999999;stroke:#999999;stroke-width:2;}
	.st10{font-family:'ArialMT';}
	.st11{font-size:6px;}
</style>
<g id="Guides_00000052789866286571771670000012115415347010132390_" class="st0">
	<g class="st1">
	</g>
	<g class="st1">
	</g>
	<path class="st2" d="M221.6,703.7"/>
	<path class="st3" d="M1213.9,1417.6"/>
</g>
<g id="Layer">
	<g id="frontier_00000023968851633910420800000000834121237675825321_">
		<path class="st4" d="M431.6,1920c2.4,1.3,4.6,4.6,4.9,7.3l5.9,54.2c0.3,2.7,2.7,5.7,5.3,6.5l81.5,26.5c2.6,0.8,6.1-0.3,7.7-2.5
			l29.5-40.6c1.6-2.2,5.1-3.3,7.7-2.5l58.2,18.9c2.6,0.8,5.4-0.6,6.3-3.2l9.4-29.3c0.8-2.6,3.8-4.8,6.5-4.8h19.4
			c2.8,0,5.7-2.1,6.6-4.8l12.5-38.1c0.9-2.6,3.7-5.4,6.3-6.3l37.1-12.1c2.6-0.8,4.1-3.7,3.2-6.3l-8.2-25.2c-0.8-2.6,0.7-4.8,3.5-4.8
			h150.8c2.8,0,6.8,1.3,9,2.9l141.4,102.8c2.2,1.6,6.2,3.6,8.8,4.5l50.9,16.5c2.6,0.8,5.4-0.6,6.1-3.3l3.4-11.8
			c0.8-2.6,1.4-7.1,1.4-9.8l-0.2-70.3c0-2.8-0.7-7.1-1.6-9.8l-23.7-72.6c-0.8-2.6-0.2-6.6,1.4-8.8l46.8-64.5c1.6-2.2,1.1-5.4-1.1-7
			l-43.8-31.8c-2.2-1.6-1.9-3.6,0.7-4.5l34.5-11.2c2.6-0.8,4.1-3.7,3.2-6.3l-10.6-32.8c-0.8-2.6,0.3-6.1,2.5-7.7l65.9-47.9
			c2.2-1.6,4.7-5.1,5.6-7.7c1.9-6.4,37.5-115.1,38.7-119.2c0.7-2.2,2.7-5.9,4.3-8.1c11.9-16.2,110.1-151.6,119.6-164.5
			c1.6-2.2,2.9-6.3,2.9-9v-158.9c0-2.8,1.3-6.8,2.9-9.1l22.8-31.3c1.6-2.2,1.1-5.4-1.1-7l-23.9-17.4c-2.2-1.6-6.2-3.6-8.8-4.5
			l-69.4-22.5c-2.6-0.8-6.9-0.8-9.5,0l-36.6,11.9c-2.6,0.8-6.9,0.8-9.5,0l-75.7-24.6c-2.6-0.8-6.1-3.4-7.7-5.6l-39.8-54.8
			c-1.6-2.2-5.1-3.3-7.7-2.5l-39.2,12.7c-2.6,0.8-6.1,3.4-7.7,5.6l-5.6,7.8c-1.6,2.2-5.1,3.3-7.7,2.5l-7-2.3
			c-2.6-0.8-4.8-3.8-4.8-6.5v-38.8c0-2.8-1.8-6.3-4-7.9l-119.4-86.7c-2.2-1.6-4.7-5.1-5.6-7.7l-46.4-142.7c-0.8-2.6-3.7-5.5-6.3-6.3
			l-61.7-20c-2.6-0.8-4.8-3.8-4.8-6.5v-29.7c0-2.8-0.7-7.1-1.5-9.8L710,435.5c-0.8-2.6-2.2-6.9-3.1-9.5l-26.1-80.5
			c-0.8-2.6-0.8-6.9,0-9.5l33.1-102c0.8-2.6-0.3-6.1-2.5-7.7l-39-28.3c-2.2-1.6-4-5.2-4-7.9v-65.3c0-2.8-2.1-5.7-4.8-6.6L619.7,104
			c-2.6-0.8-6.1,0.3-7.7,2.5L586.7,141c-1.6,2.2-5.1,3.3-7.7,2.5l-37.5-12.2c-2.6-0.9-5.5-3.7-6.3-6.3L517,68.8
			c-0.8-2.6-3.7-4.1-6.3-3.2L408.4,98.8c-2.6,0.8-4.8,3.8-4.8,6.6v100.5c0,2.8-2.1,5.7-4.8,6.6L309,241.7c-2.6,0.9-5.5,3.7-6.3,6.3
			l-33,101.6c-0.9,2.6-3.4,6.1-5.6,7.7l-43.8,31.9c-2.2,1.6-2.7,4.8-1.1,7l22.7,31.2c1.6,2.2,2.2,6.2,1.4,8.8l-13.8,42.6
			c-0.9,2.6-3.4,6.1-5.6,7.7l-58,42.4c-2.2,1.6-3.3,5.1-2.5,7.7l11.8,36.3c0.9,2.6,3.7,5.5,6.3,6.3l7.8,2.5c2.6,0.8,4.1,3.7,3.2,6.3
			l-8.4,25.9c-0.9,2.6-3.4,6.1-5.6,7.7L143,647.3c-2.2,1.6-6.2,3.6-8.8,4.5L99,663.2c-2.6,0.8-5.4,3.7-6.3,6.3l-32.2,99.1
			c-0.8,2.6-2.9,6.6-4.5,8.8l-38.2,52.5c-1.6,2.2-0.8,4.7,1.8,5.6l67.1,21.8c2.6,0.8,4.8,3.8,4.8,6.5v30.4c0,2.8-2.2,5-5,5H56.4
			c-2.8,0-5.7,2.1-6.5,4.8l-28.5,88.2c-0.9,2.6-0.8,6.9,0,9.5l34,104.7c0.8,2.6,3.7,4.1,6.3,3.2l48.4-15.7c2.6-0.8,5.4,0.6,6.3,3.2
			l59.1,181.8c0.9,2.6,3.8,4.8,6.6,4.8h55.5c2.8,0,6.3,1.8,7.9,4.1l26.7,36.7c1.6,2.2,1.6,5.9,0,8.1l-30.8,42.4
			c-1.6,2.2-2.2,6.2-1.4,8.8l11.5,35.4c0.9,2.6,3.7,5.4,6.3,6.3l39.2,12.7c2.6,0.8,4.8,3.8,4.8,6.6v67.3c0,2.8-1.8,6.3-4,7.9
			l-35.5,25.8c-2.2,1.6-4,5.2-4,7.9v39.7c0,2.8-1.8,6.3-4.1,7.9l-35.5,25.8c-2.2,1.6-2.7,4.8-1.1,7l29.1,40c1.6,2.2,1.1,5.4-1.1,7
			l-77.6,56.3c-2.2,1.6-4.7,5.1-5.6,7.7l-6.5,20.1c-0.9,2.6,0.6,5.4,3.2,6.3l7.6,2.5c2.6,0.8,6.9,0.8,9.5,0l12-3.9
			c2.6-0.8,5.4,0.6,6.3,3.2l5.7,17.5c0.9,2.6-0.3,6.1-2.5,7.7l-9.3,6.8c-2.2,1.6-3.4,5.1-2.5,7.7l4.4,13.4c0.9,2.6,3.4,6.1,5.6,7.7
			l49.4,35.9c2.2,1.6,6.2,3.6,8.8,4.5l33.9,11c2.6,0.8,6.6,0.2,8.8-1.4l7.5-5.5c2.2-1.6,6.3-2.9,9-2.9h20.5c2.8,0,7.1,0.9,9.6,1.9
			l38,15.8C388.9,1896.6,423.9,1915.9,431.6,1920L431.6,1920L431.6,1920"/>
	</g>
	<g id="Lines">
		<g id="_x37_0">
			<polyline class="st5" points="74.3,1839.1 74.3,1781.5 586.3,1615.2 686.8,1615.2 			"/>
			<polyline class="st5" points="174.6,1707.3 164.7,1737.8 178.4,1747.7 			"/>
			<line class="st5" x1="49.7" y1="1789.6" x2="74.3" y2="1781.5"/>
		</g>
		<polyline id="_x31_6" class="st5" points="190.5,1753.2 289.4,1721.1 289.4,1730.6 289.4,1844.4 346,1844.4 369.1,1876.1 
			429,1895.5 443.6,1850.4 614.8,1850.4 719,1706.9 689.8,1617 689.8,1392.6 689.8,1315.2 641.8,1167.6 641.8,871.1 486.8,657.8 
			442.1,519.8 521.2,410.9 521.2,321.1 456.7,232.4 		"/>
		<polyline id="_x35_0" class="st6" points="157.9,1405.6 157.9,1503 399.5,1503 549.9,1551.9 589.3,1606.2 686.8,1606.2 		"/>
		<polyline id="_x39_0" class="st6" points="776.8,2120.4 776.8,2037.5 647.8,1943.8 647.8,1835.5 739,1710 705.8,1607.9 		"/>
		<polyline id="_x33_0" class="st5" points="703.9,1602.2 800.7,1570.8 840.3,1625.3 901.3,1625.3 936.4,1517.2 962.7,1436.1 
			994,1425.9 1003.9,1395.3 1235.2,1320.2 1292.5,1338.9 1310.7,1313.8 1372.7,1313.8 1389.2,1325.8 1456.9,1325.8 		"/>
		<g id="_x36_0">
			<line class="st5" x1="524.8" y1="1974.9" x2="562.7" y2="1858.2"/>
			<line class="st5" x1="620.2" y1="1996.2" x2="620.2" y2="1858.2"/>
			<polyline class="st5" points="697.3,1610.7 729.1,1708.3 620.2,1858.2 450.5,1858.2 434.7,1906.9 363.5,1883.7 341.5,1853.4 
				280.4,1853.4 280.4,1733.5 195.3,1761.2 			"/>
			<line class="st5" x1="425.6" y1="1935" x2="434.7" y2="1906.9"/>
		</g>
		<g id="_x31_0">
			<polyline class="st6" points="390.7,14.8 456.2,216.4 530.2,318.1 530.2,413.9 452.1,521.4 495.2,654 650.8,868.2 650.8,1166.1 
				698.8,1313.8 698.8,1607 			"/>
			<line class="st5" x1="650.8" y1="959.5" x2="734.1" y2="898.9"/>
			<line class="st5" x1="525.5" y1="695.8" x2="352.5" y2="639.6"/>
		</g>
	</g>
	<g id="stations">
		<circle id="_x30_01_x5F_Volmerange-les-Mines_x5F_60" class="st7" cx="620.1" cy="1996.2" r="4.5"/>
		<circle id="_x30_02_x5F_Dudelange-Usines_x5F_60" class="st7" cx="620.1" cy="1968.8" r="4.5"/>
		<circle id="_x30_03_x5F_Dudelange-Centre_x5F_60" class="st7" cx="620.1" cy="1944.4" r="4.5"/>
		<circle id="_x30_04_x5F_Dudelange-Ville_x5F_60" class="st7" cx="620.1" cy="1925.7" r="4.5"/>
		<circle id="_x30_05_x5F_Dudelange-Burange_x5F_60" class="st7" cx="620.1" cy="1908.2" r="4.5"/>
		<circle id="_x30_06_x5F_Bettembourg_x5F_90" class="st7" cx="648.8" cy="1833.9" r="4.5"/>
		<circle id="_x30_06_x5F_Bettembourg_x5F_60" class="st7" cx="641.6" cy="1828.6" r="4.5"/>
		<circle id="_x30_06_x5F_Bettembourg_x5F_16" class="st7" cx="634.3" cy="1823.4" r="4.5"/>
		<circle id="_x30_07_x5F_Berchem_x5F_60" class="st7" cx="700" cy="1748.2" r="4.5"/>
		<circle id="_x30_07_x5F_Berchem_x5F_16" class="st7" cx="692.9" cy="1742.6" r="4.5"/>
		<circle id="_x30_08_x5F_Howald_x5F_16" class="st7" cx="716.2" cy="1698.8" r="4.5"/>
		<circle id="_x30_08_x5F_Howald_x5F_60" class="st7" cx="725" cy="1696.3" r="4.5"/>
		<circle id="_x30_08_x5F_Howald_x5F_90" class="st7" cx="733.4" cy="1693.2" r="4.5"/>
		<circle id="_x30_09_x5F_Hettange-Grande_x5F_90" class="st7" cx="776.7" cy="2047.8" r="4.5"/>
		<circle id="_x30_10_x5F_Thionville_x5F_90" class="st7" cx="776.7" cy="2120.4" r="4.5"/>
		<circle id="_x30_11_x5F_Rumelange_x5F_60" class="st7" cx="524.7" cy="1974.9" r="4.5"/>
		<circle id="_x30_12_x5F_Tétange_x5F_60" class="st7" cx="535" cy="1943.3" r="4.5"/>
		<circle id="_x30_13_x5F_Kayl_x5F_60" class="st7" cx="545.3" cy="1911.5" r="4.5"/>
		<circle id="_x30_14_x5F_Noertzange_x5F_60" class="st7" cx="562.6" cy="1858.2" r="4.5"/>
		<circle id="_x30_14_x5F_Noertzange_x5F_16" class="st7" cx="562.6" cy="1850.4" r="4.5"/>
		<circle id="_x30_15_x5F_Schifflange_x5F_60" class="st7" cx="487.9" cy="1858.2" r="4.5"/>
		<circle id="_x30_15_x5F_Schifflange_x5F_16" class="st7" cx="487.9" cy="1850.4" r="4.5"/>
		<circle id="_x30_16_x5F_Esch-sur-Alzette_x5F_60" class="st7" cx="440.6" cy="1888.5" r="4.5"/>
		<circle id="_x30_16_x5F_Esch-sur-Alzette_x5F_16" class="st7" cx="432.1" cy="1885.6" r="4.5"/>
		<circle id="_x30_17_x5F_Audun-le-Tiche_x5F_60" class="st7" cx="425.5" cy="1934.9" r="4.5"/>
		<circle id="_x30_18_x5F_Belval-Université_x5F_60" class="st7" cx="379.8" cy="1889.1" r="4.5"/>
		<circle id="_x30_18_x5F_Belval-Université_x5F_16" class="st7" cx="382.6" cy="1880.5" r="4.5"/>
		<circle id="_x30_19_x5F_Belval_Lycée_x5F_60" class="st7" cx="356.3" cy="1874" r="4.5"/>
		<circle id="_x30_19_x5F_Belval_Lycée_x5F_16" class="st7" cx="363.8" cy="1868.9" r="4.5"/>
		<circle id="_x30_20_x5F_Belval-Rédange_x5F_60" class="st7" cx="347" cy="1861.2" r="4.5"/>
		<circle id="_x30_20_x5F_Belval-Rédange_x5F_16" class="st7" cx="354.5" cy="1856.1" r="4.5"/>
		<circle id="_x30_21_x5F_Belvaux-Soleuvre_x5F_60" class="st7" cx="327.6" cy="1853.4" r="4.5"/>
		<circle id="_x30_21_x5F_Belvaux-Soleuvre_x5F_16" class="st7" cx="327.5" cy="1844.4" r="4.5"/>
		<circle id="_x30_22_x5F_Oberkorn_x5F_60" class="st7" cx="280.4" cy="1844.5" r="4.5"/>
		<circle id="_x30_22_x5F_Oberkorn_x5F_16" class="st7" cx="289.4" cy="1844.4" r="4.5"/>
		<circle id="_x30_23_x5F_Differdange_x5F_60" class="st7" cx="280.3" cy="1805.5" r="4.5"/>
		<circle id="_x30_23_x5F_Differdange_x5F_16" class="st7" cx="289.3" cy="1805.4" r="4.5"/>
		<circle id="_x30_24_x5F_Niederkorn_x5F_60" class="st7" cx="280.3" cy="1762.7" r="4.5"/>
		<circle id="_x30_24_x5F_Niederkorn_x5F_16" class="st7" cx="289.3" cy="1762.6" r="4.5"/>
		<circle id="_x30_25_x5F_Pétange_x5F_60" class="st7" cx="267.7" cy="1737.6" r="4.5"/>
		<circle id="_x30_25_x5F_Pétange_x5F_16" class="st7" cx="264.9" cy="1729.1" r="4.5"/>
		<circle id="_x30_25_x5F_Pétange_x5F_70" class="st7" cx="262" cy="1720.5" r="4.5"/>
		<circle id="_x30_26_x5F_Lamadelaine_x5F_60" class="st7" cx="229.1" cy="1750.1" r="4.5"/>
		<circle id="_x30_26_x5F_Lamadelaine_x5F_16" class="st7" cx="226.3" cy="1741.6" r="4.5"/>
		<circle id="_x30_26_x5F_Lamadelaine_x5F_70" class="st7" cx="223.4" cy="1733.1" r="4.5"/>
		<circle id="_x30_27_x5F_Rodange_x5F_60" class="st7" cx="192.8" cy="1762" r="4.5"/>
		<circle id="_x30_27_x5F_Rodange_x5F_16" class="st7" cx="190" cy="1753.4" r="4.5"/>
		<circle id="_x30_27_x5F_Rodange_x5F_70" class="st7" cx="187.1" cy="1744.9" r="4.5"/>
		<circle id="_x30_28_x5F_Athus_x5F_70" class="st7" cx="174.4" cy="1707.3" r="4.5"/>
		<circle id="_x30_29_x5F_Longwy_x5F_70" class="st7" cx="74.3" cy="1839.1" r="4.5"/>
		<circle id="_x30_30_x5F_Virton_x5F_70" class="st7" cx="49.6" cy="1789.6" r="4.5"/>
		<circle id="_x30_31_x5F_Bascharage-Sanem_x5F_70" class="st7" cx="328.8" cy="1698.9" r="4.5"/>
		<circle id="_x30_32_x5F_Schouweiler_x5F_70" class="st7" cx="406.6" cy="1673.6" r="4.5"/>
		<circle id="_x30_33_x5F_Dippach-Reckange_x5F_70" class="st7" cx="459.2" cy="1656.5" r="4.5"/>
		<circle id="_x30_34_x5F_Leudelange_x5F_70" class="st7" cx="532.7" cy="1632.6" r="4.5"/>
		<circle id="_x30_35_x5F_Hollerich_x5F_70" class="st7" cx="641.8" cy="1615.2" r="4.5"/>
		<circle id="_x30_36_x5F_Bertrange-Strassen_x5F_50" class="st7" cx="545.1" cy="1550.4" r="4.5"/>
		<circle id="_x30_37_x5F_Mamer_Lycée_x5F_50" class="st7" cx="512" cy="1539.6" r="4.5"/>
		<circle id="_x30_38_x5F_Mamer_x5F_50" class="st7" cx="496.7" cy="1534.6" r="4.5"/>
		<circle id="_x30_39_x5F_Capellen_x5F_50" class="st7" cx="477" cy="1528.2" r="4.5"/>
		<circle id="_x30_40_x5F_Kleinbettingen_x5F_50" class="st7" cx="332.1" cy="1503.1" r="4.5"/>
		<circle id="_x30_41_x5F_Arlon_x5F_50" class="st7" cx="157.9" cy="1405.6" r="4.5"/>
		<circle id="_x30_42_x5F_Cents-Hamm_x5F_30" class="st7" cx="753.3" cy="1586.2" r="4.5"/>
		<circle id="_x30_43_x5F_Sandweiler-Contern_x5F_30" class="st7" cx="832.2" cy="1614.2" r="4.5"/>
		<circle id="_x30_44_x5F_Oetrange_x5F_30" class="st7" cx="906.3" cy="1609.6" r="4.5"/>
		<circle id="_x30_45_x5F_Munsbach_x5F_30" class="st7" cx="931.2" cy="1533" r="4.5"/>
		<circle id="_x30_46_x5F_Roodt_x5F_30" class="st7" cx="984.8" cy="1428.9" r="4.5"/>
		<circle id="_x30_47_x5F_Betzdorf_x5F_30" class="st7" cx="1062.5" cy="1376.4" r="4.5"/>
		<circle id="_x30_48_x5F_Wecker_x5F_30" class="st7" cx="1119.8" cy="1357.8" r="4.5"/>
		<circle id="_x30_49_x5F_Manternach_x5F_30" class="st7" cx="1196.2" cy="1332.9" r="4.5"/>
		<circle id="_x30_50_x5F_Mertert_x5F_30" class="st7" cx="1292.4" cy="1338.9" r="4.5"/>
		<circle id="_x30_51_x5F_Wasserbillig_x5F_30" class="st7" cx="1310.7" cy="1313.8" r="4.5"/>
		<circle id="_x30_52_x5F_Igel_x5F_30" class="st7" cx="1380.9" cy="1319.8" r="4.5"/>
		<circle id="_x30_53_x5F_Kreuz-Konz_x5F_30" class="st7" cx="1409.9" cy="1325.8" r="4.5"/>
		<circle id="_x30_54_x5F_Trier_Sued_x5F_30" class="st7" cx="1435.6" cy="1325.8" r="4.5"/>
		<circle id="_x30_55_x5F_Trier_Hbf_x5F_30" class="st7" cx="1456.9" cy="1325.8" r="4.5"/>
		<circle id="_x30_56_x5F_Pf.-Kirchberg_x5F_10" class="st7" cx="698.8" cy="1536.3" r="4.5"/>
		<circle id="_x30_56_x5F_Pf.-Kirchberg_x5F_16" class="st7" cx="689.8" cy="1536.3" r="4.5"/>
		<circle id="_x30_57_x5F_Dommeldange_x5F_10" class="st7" cx="698.8" cy="1498.3" r="4.5"/>
		<circle id="_x30_57_x5F_Dommeldange_x5F_16" class="st7" cx="689.8" cy="1498.3" r="4.5"/>
		<circle id="_x30_58_x5F_Walferdange_x5F_10" class="st7" cx="698.8" cy="1442" r="4.5"/>
		<circle id="_x30_58_x5F_Walferdange_x5F_16" class="st7" cx="689.8" cy="1442" r="4.5"/>
		<circle id="_x30_59_x5F_Heisdorf_x5F_10" class="st7" cx="698.8" cy="1406.7" r="4.5"/>
		<circle id="_x30_60_x5F_Lorentzweiler_x5F_10" class="st7" cx="698.8" cy="1349.5" r="4.5"/>
		<circle id="_x30_61_x5F_Lintgen_x5F_10" class="st7" cx="691.5" cy="1291.4" r="4.5"/>
		<circle id="_x30_62_x5F_Mersch_x5F_10" class="st7" cx="667" cy="1216" r="4.5"/>
		<circle id="_x30_62_x5F_Mersch_x5F_16" class="st7" cx="658.4" cy="1218.8" r="4.5"/>
		<circle id="_x30_63_x5F_Cruchten_x5F_10" class="st7" cx="650.8" cy="1104.4" r="4.5"/>
		<circle id="_x30_64_x5F_Colmar-Berg_x5F_10" class="st7" cx="650.8" cy="1048.2" r="4.5"/>
		<circle id="_x30_65_x5F_Schieren_x5F_10" class="st7" cx="650.8" cy="1002.6" r="4.5"/>
		<circle id="_x30_66_x5F_Ettelbrück_x5F_10" class="st7" cx="650.8" cy="968.4" r="4.5"/>
		<circle id="_x30_66_x5F_Ettelbrück_x5F_16" class="st7" cx="641.8" cy="968.4" r="4.5"/>
		<circle id="_x30_67_x5F_Diekirch_x5F_10" class="st7" cx="734.1" cy="898.9" r="4.5"/>
		<circle id="_x30_68_x5F_Michelau_x5F_10" class="st7" cx="620.3" cy="826.2" r="4.5"/>
		<circle id="_x30_68_x5F_Michelau_x5F_16" class="st7" cx="612.9" cy="831.3" r="4.5"/>
		<circle id="_x30_69_x5F_Goebelsmühle_x5F_10" class="st7" cx="567.7" cy="753.9" r="4.5"/>
		<circle id="_x30_69_x5F_Goebelsmühle_x5F_16" class="st7" cx="560.3" cy="759.1" r="4.5"/>
		<circle id="_x30_70_x5F_Kautenbach_x5F_10" class="st7" cx="526.2" cy="696.8" r="4.5"/>
		<circle id="_x30_70_x5F_Kautenbach_x5F_16" class="st7" cx="518.8" cy="701.9" r="4.5"/>
		<circle id="_x30_71_x5F_Merkholtz_x5F_10" class="st7" cx="443.7" cy="669.2" r="4.5"/>
		<circle id="_x30_72_x5F_Paradiso_x5F_10" class="st7" cx="370.5" cy="645.5" r="4.5"/>
		<circle id="_x30_73_x5F_Wiltz_x5F_10" class="st7" cx="352.5" cy="639.6" r="4.5"/>
		<circle id="_x30_74_x5F_Wilwerwiltz_x5F_10" class="st7" cx="472.5" cy="584.2" r="4.5"/>
		<circle id="_x30_74_x5F_Wilwerwiltz_x5F_16" class="st7" cx="463.8" cy="586.6" r="4.5"/>
		<circle id="_x30_75_x5F_Drauffelt_x5F_10" class="st7" cx="462.4" cy="507.2" r="4.5"/>
		<circle id="_x30_75_x5F_Drauffelt_x5F_16" class="st7" cx="455.1" cy="501.9" r="4.5"/>
		<circle id="_x30_76_x5F_Clervaux_x5F_10" class="st7" cx="530.1" cy="397" r="4.5"/>
		<circle id="_x30_76_x5F_Clervaux_x5F_16" class="st7" cx="521.1" cy="397" r="4.5"/>
		<circle id="_x30_77_x5F_Troisvierges_x5F_10" class="st7" cx="464.1" cy="227.3" r="4.5"/>
		<circle id="_x30_77_x5F_Troisvierges_x5F_16" class="st7" cx="456.8" cy="232.5" r="4.5"/>
		<circle id="_x30_78_x5F_Gouvy_x5F_10" class="st7" cx="390.7" cy="14.8" r="4.5"/>
	</g>
	<g id="stops_00000005255695533889178870000009649779594954088845_">
		<g id="_003-Trier_00000033330948712563058880000009014241826107268496_">
			<circle class="st8" cx="1452.9" cy="1325.8" r="18"/>
		</g>
		<g id="_016-Konz_00000000181493475154336340000008709280126096353179_">
			<circle class="st8" cx="1409.9" cy="1325.8" r="7.5"/>
		</g>
		<g id="_021-Igel_00000111899425970942433640000010857460114063913878_">
			<circle class="st8" cx="1380.9" cy="1319.8" r="7.5"/>
		</g>
		<g id="_032-Wasserbillig_00000044859167165994119510000016070392014925610416_">
			<circle class="st8" cx="1310.7" cy="1313.8" r="15"/>
		</g>
		<g id="_039-Mertert_00000114072832701687621570000007400245935694921388_">
			<circle class="st8" cx="1292.4" cy="1338.9" r="7.5"/>
		</g>
		<g id="_052-Grevenmacher_00000026121630870364577060000002582515069128999051_">
			<circle class="st8" cx="1228.2" cy="1412.9" r="15"/>
		</g>
		<g id="_073-Münschecker_00000104664681392582109110000005651045141965616010_">
			<circle class="st8" cx="1196.2" cy="1332.9" r="7.5"/>
		</g>
		<g id="_074-Echternach_00000039122888039249879430000008714578662050559363_">
			<circle class="st8" cx="1193.7" cy="1064.4" r="15"/>
		</g>
		<g id="_099-Wecker_00000145048045227849267710000012182388087614432419_">
			<circle class="st8" cx="1119.8" cy="1357.8" r="7.3"/>
		</g>
		<g id="_114-Remich_00000139993597257640181780000008632550673187663788_">
			<circle class="st8" cx="1085.1" cy="1758" r="15"/>
		</g>
		<g id="_134-Betzdorf_00000053511922656368337070000005366077571668590219_">
			<circle class="st8" cx="1062.5" cy="1376.4" r="7.5"/>
		</g>
		<g id="_163-Olingen_00000176033911293661626150000013505292715250302874_">
			<circle class="st8" cx="984.8" cy="1428.9" r="12"/>
		</g>
		<g id="_197-Munsbach_00000157991399161131330510000011189581100846835584_">
			<circle class="st8" cx="931.2" cy="1533" r="7.5"/>
		</g>
		<g id="_211-Oetrange_00000000197897658427852430000001189819028448040847_">
			<circle class="st8" cx="906.3" cy="1609.6" r="7.5"/>
		</g>
		<g id="_244-Contern_00000132087834168319868930000011986337606299423369_">
			<circle class="st8" cx="832.2" cy="1614.2" r="9"/>
		</g>
		<g id="_259-Scheierhaf_00000097475480142887520970000001336592963376503483_">
			<circle class="st8" cx="835.3" cy="725.4" r="15"/>
		</g>
		<g id="_287-Manom_00000148656807288132816550000013939895279818905760_">
			<circle class="st8" cx="776.8" cy="2123.4" r="22.5"/>
		</g>
		<g id="_288-Hetange-Grande_00000103263024887663970480000013401482479921972921_">
			<path class="st8" d="M776.7,2040.3c4.2,0,7.5,3.3,7.5,7.5s-3.3,7.5-7.5,7.5c-4.2,0-7.5-3.3-7.5-7.5S772.5,2040.3,776.7,2040.3z"
				/>
		</g>
		<g id="_334-Diekirch_00000100378591994384154960000016119988355312906429_">
			<circle class="st8" cx="734.1" cy="898.9" r="12.5"/>
		</g>
		<g id="_377-Bivange_00000174587469215939096010000009981896424476526001_">
			<circle class="st8" cx="696.8" cy="1745.4" r="10.8"/>
		</g>
		<g id="_407-Badanstalt_00000093899699095006678940000014501474718412196030_">
			<circle class="st8" cx="694.7" cy="1596.8" r="85"/>
		</g>
		<g id="_408-Badanstalt_00000105413747653077997940000018079251467956345532_">
			
				<ellipse transform="matrix(0.7071 -0.7071 0.7071 0.7071 -925.6199 958.9454)" class="st8" cx="694.7" cy="1596.8" rx="55" ry="55"/>
		</g>
		<g id="_413-Walferdange_00000181790071050885106670000018057858394393852341_">
			<circle class="st8" cx="694.3" cy="1442" r="10"/>
		</g>
		<g id="_415-Heisdorf_00000168830289622221080470000001374860421285204876_">
			<circle class="st8" cx="698.8" cy="1406.7" r="7.5"/>
		</g>
		<g id="_416-Lorentzweiler_00000008118536225139077330000000808534526049780110_">
			<circle class="st8" cx="698.8" cy="1349.5" r="7.5"/>
		</g>
		<g id="_417-Lintgen_00000139284661510067567150000005064978101730559151_">
			<circle class="st8" cx="691.5" cy="1291.4" r="7.5"/>
		</g>
		<g id="_418-Walferdange_00000005974552575802154710000012289945380130302373_">
			<circle class="st8" cx="694.3" cy="1498.3" r="10"/>
		</g>
		<g id="_444-Cruchten_00000158726657425525642630000017084597500917783713_">
			<circle class="st8" cx="650.8" cy="1104.4" r="7.5"/>
		</g>
		<g id="_469-Mersch_00000031891647459417344560000017137303370554083251_">
			<circle class="st8" cx="662.8" cy="1217.3" r="22.5"/>
		</g>
		<g id="_481-Ettelbruck_00000063617407062829580660000014924456356365712774_">
			<circle class="st8" cx="646.2" cy="962.8" r="25"/>
		</g>
		<g id="_504-Colmar-Berg_00000021819637384894999250000017394703260149462402_">
			<circle class="st8" cx="650.8" cy="1048.2" r="7.3"/>
		</g>
		<g id="_505-Schieren_00000142864397361270676570000017385909608246723738_">
			<circle class="st8" cx="650.8" cy="1003" r="7.5"/>
		</g>
		<g id="_514-Fennange_00000047054706829518599900000014300587689771015302_">
			<circle class="st8" cx="641.8" cy="1828.7" r="15"/>
		</g>
		<g id="_540-Dudelange_00000045615226333377377710000005579349601031370372_">
			<circle class="st8" cx="620.2" cy="1936" r="22.5"/>
		</g>
		<g id="_546-Michelau_00000114045880071962957180000015735467503763199128_">
			<circle class="st8" cx="616.6" cy="828.8" r="10"/>
		</g>
		<g id="_554-Volmerange-les-Mines_00000077316319457330553690000009522625541561365151_">
			<circle class="st8" cx="620.2" cy="1996.2" r="7.5"/>
		</g>
		<g id="_594-Kockelscheuer_00000072267490229814170180000000540930171278246840_">
			<circle class="st8" cx="532.7" cy="1632.6" r="10.7"/>
		</g>
		<g id="_611-Noertzange_00000086685172043648764370000000630717246264446624_">
			<circle class="st8" cx="562.6" cy="1854.2" r="12"/>
		</g>
		<g id="_615-Lipperscheid_00000029014482256598682450000015525238016081137843_">
			<circle class="st8" cx="563.6" cy="756.1" r="10"/>
		</g>
		<g id="_625-Kayl_00000142860535643761927610000001029675715267570073_">
			<circle class="st8" cx="545.3" cy="1911.5" r="15"/>
		</g>
		<g id="_629-Kayl_00000143606505409973024790000009602132413399548320_">
			<circle class="st8" cx="535" cy="1943.3" r="15"/>
		</g>
		<g id="_639-Tétange_00000175300974495086035540000013762545078488758445_">
			<circle class="st8" cx="524.8" cy="1974.9" r="15"/>
		</g>
		<g id="_640-Urspelt_00000176035824474154987660000011986757757977435018_">
			<circle class="st8" cx="525.1" cy="397.4" r="15"/>
		</g>
		<g id="_642-Strassen_00000181066805716978179630000014967926131920615353_">
			<circle class="st8" cx="545.1" cy="1550.4" r="10.5"/>
		</g>
		<g id="_659-Kautenbach_00000031200591740415932370000003294742913381979066_">
			<circle class="st8" cx="522.5" cy="699.2" r="10"/>
		</g>
		<g id="_661-Mamer_00000079455061904211930120000008468851733976793015_">
			<circle class="st8" cx="504.5" cy="1537.2" r="10.5"/>
		</g>
		<g id="_676-Schifange_00000130626475473718761810000002437281458977618825_">
			<circle class="st8" cx="487.9" cy="1854.2" r="15"/>
		</g>
		<g id="_683-Drauffelt_00000161598754622142905540000001364772056104237213_">
			<circle class="st8" cx="458.7" cy="504.5" r="10"/>
		</g>
		<g id="_684-Capellen_00000109009127806650570490000012975041590583006372_">
			<circle class="st8" cx="477" cy="1528.2" r="10.5"/>
		</g>
		<g id="_699-Wilwerwiltz_00000020386968671406437560000000794860692311024787_">
			<circle class="st8" cx="468.1" cy="585.4" r="10.1"/>
		</g>
		<g id="_704-Dippach_00000108994533801627871850000003638911177603854230_">
			<circle class="st8" cx="459.2" cy="1656.5" r="10.8"/>
		</g>
		<g id="_705-Drinklange_00000025417628127795553720000015621583323302132875_">
			<circle class="st8" cx="461.3" cy="230.3" r="15"/>
		</g>
		<g id="_723-Hautbellain_00000096024225755729017850000011546655585722756739_">
			<circle class="st8" cx="390.9" cy="15.3" r="7.5"/>
		</g>
		<g id="_725-Merkholtz_00000183963298874053113250000003403095230606823808_">
			<circle class="st8" cx="443.7" cy="669.2" r="7.5"/>
		</g>
		<g id="_726-Esch-sur-Alzette_00000081629656648276163000000016627391508094955432_">
			<circle class="st8" cx="436.6" cy="1891.8" r="25"/>
		</g>
		<g id="_741-Audun-le-Tiche_00000070115811747407099280000016240823879294891433_">
			<circle class="st8" cx="425.6" cy="1935" r="15"/>
		</g>
		<g id="_757-Bettange-sur-Mess_00000013163653252479234160000000909015242294525106_">
			<circle class="st8" cx="406.6" cy="1673.6" r="10.8"/>
		</g>
		<g id="_780-Belval_00000145750589205683049990000004506106352328489111_">
			<circle class="st8" cx="367" cy="1880.3" r="15"/>
		</g>
		<g id="_806-Wiltz_00000142152854025069093000000015636206501342973835_">
			<circle class="st8" cx="352.5" cy="639.6" r="15"/>
		</g>
		<g id="_810-Belvaux_00000145738360984120721560000000417785986584564116_">
			<circle class="st8" cx="327" cy="1848.9" r="15"/>
		</g>
		<g id="_832-Hagen_00000120549357623748284460000006274577648109489076_">
			<circle class="st8" cx="332.1" cy="1503.1" r="10.5"/>
		</g>
		<g id="_833-Hagen_00000001645702768285872610000010830415257808632960_">
			<circle class="st8" cx="332.2" cy="1470.4" r="15"/>
		</g>
		<g id="_836-Bascharage_00000032619090885519147910000012054292769498075803_">
			<circle class="st8" cx="328.8" cy="1698.9" r="16.5"/>
		</g>
		<g id="_870-Differdange">
			<circle class="st8" cx="284.8" cy="1805.4" r="22.5"/>
		</g>
		<g id="_871-Niederkorn_00000030473683512911687370000003466339096310048418_">
			<circle class="st8" cx="284.9" cy="1763.2" r="15"/>
		</g>
		<g id="_873-Redange_Attert_00000087410280749687641250000005377616504182602627_">
			<circle class="st8" cx="286.2" cy="1173.5" r="15"/>
		</g>
		<g id="_875-Obercorn">
			<circle class="st8" cx="284.8" cy="1844.9" r="15"/>
		</g>
		<g id="_898-Pétange_00000018917167136994136420000016086232984250159235_">
			<circle class="st8" cx="264.9" cy="1729.1" r="18"/>
		</g>
		<g id="_913-Lamadelaine_00000102515516894184045580000015142280483621471413_">
			<circle class="st8" cx="226.4" cy="1741.6" r="16.8"/>
		</g>
		<g id="_939-Rodange_00000151504793859882390440000009560548242204104076_">
			<circle class="st8" cx="190" cy="1753.4" r="14.4"/>
		</g>
		<g id="_946-Athus_00000130609804247219766230000012974510212912743306_">
			<circle class="st8" cx="174.6" cy="1707.3" r="7.5"/>
		</g>
		<g id="_959-Arlon_00000180343593647561977910000000381159951254241180_">
			<circle class="st8" cx="157.9" cy="1405.6" r="15"/>
		</g>
		<g id="_982-Herserange_00000031171121399110394660000009465059406161951396_">
			<circle class="st8" cx="74.3" cy="1839.1" r="18"/>
		</g>
		<polygon id="_x39_96-Luxembourg" class="st9" points="705.6,1618.7 687.6,1619.1 681.7,1602.1 696.1,1591.3 710.8,1601.6 		"/>
		<g id="_991-Virton_00000039134486810984257240000010506885212477573030_">
			<circle class="st8" cx="49.7" cy="1789.6" r="7.5"/>
		</g>
		<g id="_x39_95-Pfaffenthal-Kirchberg_00000004544643290483176370000009192350115885972097_">
			<circle class="st8" cx="753.3" cy="1586.2" r="8"/>
		</g>
		<g id="_x39_94-Cents-Hamm_00000065068220187268581280000013497969182885191586_">
			<circle class="st8" cx="694.4" cy="1536.5" r="10"/>
		</g>
		<g id="_993-Hollerich_00000003104171497808385390000004268231773774333114_">
			<circle class="st8" cx="641.8" cy="1615.2" r="8"/>
		</g>
		<g id="_992-Howald">
			<circle class="st8" cx="725.1" cy="1696.3" r="15"/>
		</g>
	</g>
	<g id="stop_labels_00000157285024296017989310000014781571348614312890_">
		<g id="_003-Trier-2_00000115474312555721008260000007798525249902372788_">
			<g>
				<text transform="matrix(1 0 0 1 1451.0527 1304.8751)" class="st10 st11">Trier</text>
			</g>
		</g>
		<g id="_016-Konz-2_00000010997730055293876470000009157265000415239837_">
			<g>
				<text transform="matrix(1 0 0 1 1415.9724 1315.2219)" class="st10 st11">Konz</text>
			</g>
		</g>
		<g id="_021-Igel-2_00000017476160840815925540000014806911889308854449_">
			<g>
				<text transform="matrix(1 0 0 1 1390.4484 1311.9066)" class="st10 st11">Igel</text>
			</g>
		</g>
		<g id="_032-Wasserbillig-2_00000152256547519072018670000016794480572986536112_">
			<g>
				<text transform="matrix(1 0 0 1 1321.011 1296.2002)" class="st10 st11">Wasserbillig</text>
			</g>
		</g>
		<g id="_039-Mertert-2_00000040562691478726302410000015798148125518410683_">
			<g>
				<text transform="matrix(1 0 0 1 1293.7528 1353.8175)" class="st10 st11">Mertert</text>
			</g>
		</g>
		<g id="_052-Grevenmacher-2_00000160175626882264796770000006256298715388569270_">
			<g>
				<text transform="matrix(1 0 0 1 1210.3083 1391.0446)" class="st10 st11">Grevenmacher</text>
			</g>
		</g>
		<g id="_073-Münschecker-2_00000091714325273729620910000008972468114745672629_">
			<g>
				<text transform="matrix(1 0 0 1 1203.3962 1348.2017)" class="st10 st11">Manternach</text>
			</g>
		</g>
		<g id="_074-Echternach-2_00000018950493150830164440000005205043888101733020_">
			<g>
				<text transform="matrix(1 0 0 1 1202.6461 1043.0093)" class="st10 st11">Echternach</text>
			</g>
		</g>
		<g id="_099-Wecker-2_00000127021231156295280390000002002212565673565866_">
			<g>
				<text transform="matrix(1 0 0 1 1127.1545 1370.48)" class="st10 st11">Wecker</text>
			</g>
		</g>
		<g id="_114-Remich-2_00000093898825327630190840000011080095764536100240_">
			<g>
				<text transform="matrix(1 0 0 1 1052.5841 1774.8914)" class="st10 st11">Remich</text>
			</g>
		</g>
		<g id="_134-Betzdorf-2_00000121237614734610409080000002838853528761410706_">
			<g>
				<text transform="matrix(1 0 0 1 1067.5005 1391.1096)" class="st10 st11">Betzdorf</text>
			</g>
		</g>
		<g id="_163-Olingen-2_00000078018821761187035240000013891856817616673672_">
			<g>
				<text transform="matrix(1 0 0 1 1003.1089 1426.1)" class="st10 st11">Roodt-sur-Syre</text>
			</g>
		</g>
		<g id="_197-Munsbach-2_00000145743003423554066930000017990990684268215686_">
			<g>
				<text transform="matrix(1 0 0 1 944.2206 1528.5328)" class="st10 st11">Munsbach</text>
			</g>
		</g>
		<g id="_211-Oetrange-2_00000005226068431164673150000014747394084399157377_">
			<g>
				<text transform="matrix(1 0 0 1 917.7998 1606.3975)" class="st10 st11">Oetrange</text>
			</g>
		</g>
		<g id="_244-Contern-2_00000071523457327710879700000000342494534471576971_">
			<g>
				<text transform="matrix(1 0 0 1 841.0723 1605.0331)" class="st10 st11">Contern</text>
			</g>
		</g>
		<g id="_259-Scheierhaf-2_00000171710700753783363210000014333945923722644630_">
			<g>
				<text transform="matrix(1 0 0 1 855.4257 713.2667)" class="st10 st11">Vianden</text>
			</g>
		</g>
		<g id="_287-Manom-2_00000158011416414888670600000015427263300674049156_">
			<g>
				<text transform="matrix(1 0 0 1 797.3619 2105.7104)" class="st10 st11">Thionville</text>
			</g>
		</g>
		<g id="_288-Hetange-Grande-2_00000065764903921884814970000016725947530678900619_">
			<g>
				<text transform="matrix(1 0 0 1 787.6788 2045.3188)" class="st10 st11">Hettange-Grande</text>
			</g>
		</g>
		<g id="_334-Diekirch-2_00000045618588940646335580000017449509595596008091_">
			<g>
				<text transform="matrix(1 0 0 1 744.3129 882.9001)" class="st10 st11">Diekirch</text>
			</g>
		</g>
		<g id="_377-Bivange-2_00000003824559953657356760000000056003114449516730_">
			<g>
				<text transform="matrix(1 0 0 1 664.2987 1734.6295)" class="st10 st11">Berchem</text>
			</g>
		</g>
		<g id="_413-Walferdange-2_00000115483485757676070310000007860824581828993446_">
			<g>
				<text transform="matrix(1 0 0 1 708.366 1444.4373)" class="st10 st11">Walferdange</text>
			</g>
		</g>
		<g id="_415-Heisdorf-2_00000158013092771728357930000017237358554664052883_">
			<g>
				<text transform="matrix(1 0 0 1 710.2471 1408.3806)" class="st10 st11">Heisdorf</text>
			</g>
		</g>
		<g id="_416-Lorentzweiler-2_00000096767296356942580890000013335901984133896609_">
			<g>
				<text transform="matrix(1 0 0 1 710.2471 1353.1243)" class="st10 st11">Lorentzweiler</text>
			</g>
		</g>
		<g id="_417-Lintgen-2_00000098209617649796970710000001804998200432139197_">
			<g>
				<text transform="matrix(1 0 0 1 705.842 1292.3314)" class="st10 st11">Lintgen</text>
			</g>
		</g>
		<g id="_418-Walferdange-2_00000152242289716838093870000001222199765803275906_">
			<g>
				<text transform="matrix(1 0 0 1 708.6617 1498.4807)" class="st10 st11">Dommeldange</text>
			</g>
		</g>
		<g id="_444-Cruchten-2_00000173844983030106942670000007552670541486495119_">
			<g>
				<text transform="matrix(1 0 0 1 662.8422 1106.3293)" class="st10 st11">Cruchten</text>
			</g>
		</g>
		<g id="_469-Mersch-2_00000104708558171913689860000015014129026995366542_">
			<g>
				<text transform="matrix(1 0 0 1 682.1631 1196.2064)" class="st10 st11">Mersch</text>
			</g>
		</g>
		<g id="_481-Ettelbruck-2_00000137814930290944684910000014707398848864292283_">
			<g>
				<text transform="matrix(1 0 0 1 671.1538 982.2145)" class="st10 st11">Ettelbruck</text>
			</g>
		</g>
		<g id="_504-Colmar-Berg-2_00000073718695337956474490000015938253369023909529_">
			<g>
				<text transform="matrix(1 0 0 1 662.4971 1050.6714)" class="st10 st11">Colmar-Berg</text>
			</g>
		</g>
		<g id="_505-Schieren-2_00000006692578937966523060000011050033706943484813_">
			<g>
				<text transform="matrix(1 0 0 1 663.1377 1004.6096)" class="st10 st11">Schieren</text>
			</g>
		</g>
		<g id="_514-Fennange-2_00000003073847735619108460000000969378515017480628_">
			<g>
				<text transform="matrix(1 0 0 1 668.0182 1829.8718)" class="st10 st11">Bettembourg</text>
			</g>
		</g>
		<g id="_540-Dudelange-2_00000061451740360521643390000013110378762410977466_">
			<g>
				<text transform="matrix(1 0 0 1 574.6428 1917.7834)" class="st10 st11">Dudelange</text>
			</g>
		</g>
		<g id="_546-Michelau-2_00000176751878447307411580000016045619177705884558_">
			<g>
				<text transform="matrix(1 0 0 1 628.578 823.0612)" class="st10 st11">Michelau</text>
			</g>
		</g>
		<g id="_554-Volmerange-les-Mines-2_00000005973826086671534290000004779432156164844462_">
			<g>
				<text transform="matrix(1 0 0 1 580.4412 2010.9185)" class="st10 st11">Volmerange-les-Mines</text>
			</g>
		</g>
		<g id="_594-Kockelscheuer-2_00000094605753609637953810000008211485593700680891_">
			<g>
				<text transform="matrix(1 0 0 1 523.3113 1616.4462)" class="st10 st11">Leudelange</text>
			</g>
		</g>
		<g id="_611-Noertzange-2_00000022534204154582016710000012413478930678745518_">
			<g>
				<text transform="matrix(1 0 0 1 569.1331 1837.5148)" class="st10 st11">Noertzange</text>
			</g>
		</g>
		<g id="_615-Lipperscheid-2_00000134943896896716564110000008606305927699384743_">
			<g>
				<text transform="matrix(1 0 0 1 575.4003 751.0686)" class="st10 st11">Goebelsmühle</text>
			</g>
		</g>
		<g id="_642-Strassen-2_00000170268289668990695950000006333026469692565936_">
			<g>
				<text transform="matrix(1 0 0 1 553.123 1538.744)" class="st10 st11">Bertrange</text>
			</g>
		</g>
		<g id="_625-Kayl-2_00000037673826611058990570000007584240606001062017_">
			<g>
				<text transform="matrix(1 0 0 1 521.0432 1897.6763)" class="st10 st11">Kayl</text>
			</g>
		</g>
		<g id="_629-Kayl-2_00000179640542066253850440000013271512863455775622_">
			<g>
				<text transform="matrix(1 0 0 1 497.8459 1931.3501)" class="st10 st11">Tétange</text>
			</g>
		</g>
		<g id="_639-Tétange-2_00000065759501952255995920000011021065673083334034_">
			<g>
				<text transform="matrix(1 0 0 1 483.443 1959.9005)" class="st10 st11">Rumelange</text>
			</g>
		</g>
		<g id="_640-Urspelt-2_00000086673694263217982690000010757821929108382598_">
			<g>
				<text transform="matrix(1 0 0 1 482.4346 415.5082)" class="st10 st11">Clervaux</text>
			</g>
		</g>
		<g id="_659-Kautenbach-2_00000046315295915801782120000008332621950638971323_">
			<g>
				<text transform="matrix(1 0 0 1 534.8712 693.0632)" class="st10 st11">Kautenbach</text>
			</g>
		</g>
		<g id="_661-Mamer-2_00000134233204838791792020000003985040276712975802_">
			<g>
				<text transform="matrix(1 0 0 1 516.5339 1526.7252)" class="st10 st11">Mamer</text>
			</g>
		</g>
		<g id="_676-Schifange-2_00000041290887598813222260000015202536009087542200_">
			<g>
				<text transform="matrix(1 0 0 1 497.8459 1835.8611)" class="st10 st11">Schifflange</text>
			</g>
		</g>
		<g id="_683-Drauffelt-2_00000106833084100570715710000000752154295734702722_">
			<g>
				<text transform="matrix(1 0 0 1 457.3951 516.7864)" class="st10 st11">f</text>
				<text transform="matrix(1 0 0 1 473.5893 511.6658)" class="st10 st11">Drauffelt</text>
			</g>
		</g>
		<g id="_684-Capellen-2_00000129914418032704733660000009130662787249366955_">
			<g>
				<text transform="matrix(1 0 0 1 488.8571 1518.0717)" class="st10 st11">Capellen</text>
			</g>
		</g>
		<g id="_699-Wilwerwiltz-2_00000034800149710150589190000015546810704778283196_">
			<g>
				<text transform="matrix(1 0 0 1 482.9572 578.4161)" class="st10 st11">Wilwerwiltz</text>
			</g>
		</g>
		<g id="_704-Dippach-2_00000005257056147516899440000006081351737582595477_">
			<g>
				<text transform="matrix(1 0 0 1 463.6777 1640.6173)" class="st10 st11">Dippach</text>
			</g>
		</g>
		<g id="_705-Drinklange-2_00000146491667944052765790000014144286578268486030_">
			<g>
				<text transform="matrix(1 0 0 1 478.1934 218.0137)" class="st10 st11">Troisvierges</text>
			</g>
		</g>
		<g id="_723-Hautbellain-2_00000154402038494412987080000014559768476614378422_">
			<g>
				<text transform="matrix(1 0 0 1 402.2522 15.3182)" class="st10 st11">Gouvy</text>
			</g>
		</g>
		<g id="_725-Merkholtz-2_00000169556434101686615300000000205221262031545485_">
			<g>
				<text transform="matrix(1 0 0 1 428.8134 683.7259)" class="st10 st11">Merkholtz</text>
			</g>
		</g>
		<g id="_726-Esch-sur-Alzette-2_00000081610722379416999280000005320885592850862258_">
			<g>
				<text transform="matrix(1 0 0 1 464.4142 1889.9663)" class="st10 st11">Esch-sur-Alzette</text>
			</g>
		</g>
		<g id="_741-Audun-le-Tiche-2_00000014599741847256273230000004299439564715007914_">
			<g>
				<text transform="matrix(1 0 0 1 372.5566 1958.4948)" class="st10 st11">Audun-le-Tiche</text>
			</g>
		</g>
		<g id="_757-Bettange-sur-Mess-2_00000132807830645060720820000006810296980284214188_">
			<g>
				<text transform="matrix(1 0 0 1 406.6403 1657.2717)" class="st10 st11">Schouweiler</text>
			</g>
		</g>
		<g id="_780-Belval-2_00000160880766079879524650000003992329839735275194_">
			<g>
				<text transform="matrix(1 0 0 1 374.2354 1864.1304)" class="st10 st11">Belval</text>
			</g>
		</g>
		<g id="_806-Wiltz-2_00000020376826363606206590000015231774231850369449_">
			<g>
				<text transform="matrix(1 0 0 1 369.5366 627.2971)" class="st10 st11">Wiltz</text>
			</g>
		</g>
		<g id="_810-Belvaux-2_00000142857965437440331300000007387132155932082083_">
			<g>
				<text transform="matrix(1 0 0 1 332.0432 1830.812)" class="st10 st11">Belvaux</text>
			</g>
		</g>
		<g id="_832-Hagen-2_00000116213677293181629330000015351699631423002043_">
			<g>
				<text transform="matrix(1 0 0 1 344.1007 1492.8446)" class="st10 st11">Kleinbettingen</text>
			</g>
		</g>
		<g id="_833-Hagen-2_00000026132757930466868930000013052311009764531862_">
			<g>
				<text transform="matrix(1 0 0 1 350.4471 1459.3694)" class="st10 st11">Steinfort</text>
			</g>
		</g>
		<g id="_836-Bascharage-2_00000066473172567943165300000003870187171904068525_">
			<g>
				<text transform="matrix(1 0 0 1 333.2585 1677.8203)" class="st10 st11">Bascharage</text>
			</g>
		</g>
		<g id="_870-Differdange-2">
			<g>
				<text transform="matrix(1 0 0 1 308.2201 1793.8077)" class="st10 st11">Differdange</text>
			</g>
		</g>
		<g id="_871-Niederkorn-2_00000151516071591773558720000016069908712876225944_">
			<g>
				<text transform="matrix(1 0 0 1 301.0713 1752.6388)" class="st10 st11">Niederkorn</text>
			</g>
		</g>
		<g id="_873-Redange_Attert-2_00000073723277641678035870000014121697567666696629_">
			<g>
				<text transform="matrix(1 0 0 1 246.2852 1197.0264)" class="st10 st11">Redange/Attert</text>
			</g>
		</g>
		<g id="_875-Obercorn-2">
			<g>
				<text transform="matrix(1 0 0 1 273.4 1868.546)" class="st10 st11">Oberkorn</text>
			</g>
		</g>
		<g id="_898-Pétange-2_00000085960137411731933310000012827271368158460072_">
			<g>
				<text transform="matrix(1 0 0 1 265.8923 1704.078)" class="st10 st11">Pétange</text>
			</g>
		</g>
		<g id="_913-Lamadelaine-2_00000147906960423800957360000005527186099287415687_">
			<g>
				<text transform="matrix(1 0 0 1 224.6431 1766.5272)" class="st10 st11">Lamadelaine</text>
			</g>
		</g>
		<g id="_939-Rodange-2_00000095323067158303360010000013926627604484145588_">
			<g>
				<text transform="matrix(1 0 0 1 198.2207 1773.9329)" class="st10 st11">Rodange</text>
			</g>
		</g>
		<g id="_946-Athus-2_00000176004572962749992970000004334284399182740894_">
			<g>
				<text transform="matrix(1 0 0 1 184.4147 1701.6914)" class="st10 st11">Athus</text>
			</g>
		</g>
		<g id="_959-Arlon-2_00000076564215277134732620000013628020822010625977_">
			<g>
				<text transform="matrix(1 0 0 1 175.4836 1394.1215)" class="st10 st11">Arlon</text>
			</g>
		</g>
		<g id="_982-Herserange-2_00000112620065028992515070000000605006885859396534_">
			<g>
				<text transform="matrix(1 0 0 1 92.817 1823.7764)" class="st10 st11">Longwy</text>
			</g>
		</g>
		<g id="_991-Virton">
			<g>
				<text transform="matrix(1 0 0 1 37.9009 1778.5415)" class="st10 st11">Virton</text>
			</g>
		</g>
		<g id="_x39_95-Pfaffenthal-Kirchberg">
			<g>
				<text transform="matrix(1 0 0 1 764.2003 1598.2335)" class="st10 st11">Cents-Hamm</text>
			</g>
		</g>
		<g id="_x39_94-Cents-Hamm">
			<g>
				<text transform="matrix(1 0 0 1 710.2473 1531.9628)" class="st10 st11">Pfaffenthal-Kirchberg</text>
			</g>
		</g>
		<g id="_993-Hollerich">
			<g>
				<text transform="matrix(1 0 0 1 617.2672 1631.9789)" class="st10 st11">Hollerich</text>
			</g>
		</g>
		<g id="_992-Howald_00000098194141596994491330000002878035169872273296_">
			<g>
				<text transform="matrix(1 0 0 1 744.3124 1693.7528)" class="st10 st11">Howald</text>
			</g>
		</g>
		<g id="_x39_96-Luxembourg_00000156561294755407819530000009242982379067602561_">
			<g>
				<text transform="matrix(1 0 0 1 715.5102 1612.5355)" class="st10 st11">Luxembourg</text>
			</g>
		</g>
	</g>
</g>
</svg>
